<?xml version="1.0" standalone="no"?><!DOCTYPE svg PUBLIC "-//W3C//DTD SVG 1.1//EN" "http://www.w3.org/Graphics/SVG/1.1/DTD/svg11.dtd"><svg t="1723128197210" class="icon" viewBox="0 0 1292 1024" version="1.1" xmlns="http://www.w3.org/2000/svg" p-id="3169" width="323" height="256" xmlns:xlink="http://www.w3.org/1999/xlink"><path d="M411.550476 79.238095s223.329524-76.312381 414.476191-48.761905c179.2 25.6 230.64381 53.881905 292.571428 121.904762 120.441905 132.632381 206.750476 281.84381 97.52381 487.619048-101.668571 191.878095-236.739048 207.969524-365.714286 268.190476-138.727619 64.853333-485.912381 159.939048-682.666667-48.761905-156.038095-165.546667-191.146667-353.52381-73.142857-536.380952 108.007619-167.253333 316.952381-243.809524 316.952381-243.809524z" fill="#FCFBE4" p-id="3170"></path><path d="M411.550476 79.238095l-8.411428-22.893714-0.073143 0.024381-0.146286 0.073143-0.560762 0.195047a254.000762 254.000762 0 0 0-9.216 3.657143c-6.217143 2.535619-15.11619 6.314667-26.112 11.361524a851.626667 851.626667 0 0 0-86.137905 45.933714C213.552762 158.622476 130.901333 221.891048 74.118095 309.808762 12.288 405.625905-10.24 504.271238 4.291048 601.35619c14.457905 96.694857 65.243429 189.44 145.700571 274.822096 105.081905 111.469714 249.344 140.55619 381.927619 134.582857 132.583619-5.948952 257.194667-46.982095 328.801524-80.457143 23.747048-11.068952 48.323048-20.772571 73.337905-30.622476 105.130667-41.423238 217.478095-85.699048 303.616-248.246857 57.295238-107.958857 64.121905-203.215238 39.253333-289.401905-24.576-85.040762-79.286857-158.866286-140.288-226.011429v-0.024381c-32.426667-35.59619-63.439238-62.22019-110.592-82.797714-46.153143-20.138667-106.496-33.962667-196.559238-46.811428-99.523048-14.360381-206.238476-1.609143-287.061333 14.238476-40.643048 7.972571-75.166476 16.822857-99.596191 23.649524a1003.446857 1003.446857 0 0 0-38.375619 11.654095l-0.560762 0.195047-0.146286 0.048762h-0.048761l7.850666 23.088762z m8.143238 22.991238l-0.170666 0.048762a611.718095 611.718095 0 0 0-32.134096 13.677715c-20.577524 9.48419-49.225143 23.844571-81.139809 43.300571-64.121905 39.058286-139.946667 97.694476-191.146667 177.005714m304.591238-234.057143l0.24381-0.073142 1.779809-0.585143a953.002667 953.002667 0 0 1 34.328381-10.337524c23.405714-6.582857 56.661333-15.09181 95.744-22.747429 78.628571-15.433143 179.126857-27.062857 270.750476-13.848381h0.048762c89.112381 12.726857 144.091429 25.84381 183.954286 43.25181 38.838857 16.969143 64.487619 38.497524 94.012952 70.899809 59.440762 65.487238 108.080762 132.583619 129.51162 206.750477 21.065143 73.020952 16.432762 155.257905-35.474286 253.074285-77.06819 145.432381-171.032381 182.759619-274.041905 223.646476-26.258286 10.435048-53.150476 21.113905-80.457143 33.865143-67.120762 31.378286-185.465905 70.314667-310.369524 75.922286-124.854857 5.607619-252.586667-22.089143-344.259047-119.320381-75.556571-80.164571-120.344381-164.181333-132.949334-248.563809-12.55619-84.016762 6.38781-170.837333 62.561524-257.877334M411.550476 79.238095l-7.875047-23.064381-0.24381 0.073143-0.292571 0.097524 8.411428 22.893714z" fill="#070002" p-id="3171"></path><path d="M1063.594667 473.502476c-31.451429-7.728762-83.309714-13.799619-161.475048-4.339809-126.976 15.530667-268.970667 97.596952-381.391238 178.492952a1967.835429 1967.835429 0 0 0-136.850286 108.324571 1707.812571 1707.812571 0 0 0-49.444571 44.544l-2.608762 2.462477-0.633905 0.633904-0.146286 0.121905-0.048761 0.048762-16.969143-17.505524-16.969143-17.505524 0.073143-0.073142 0.195047-0.195048 0.731429-0.731429 2.852571-2.681904c2.438095-2.340571 6.095238-5.729524 10.776381-10.069334 9.386667-8.655238 23.04-20.992 40.252953-35.913143a2015.524571 2015.524571 0 0 1 140.312381-111.030857c113.371429-81.603048 263.94819-170.179048 403.943619-187.343238h0.048762c83.236571-10.044952 141.092571-3.900952 178.980571 5.412572a219.818667 219.818667 0 0 1 42.300952 14.628571 122.416762 122.416762 0 0 1 14.116572 7.92381c0.390095 0.24381 0.731429 0.487619 0.999619 0.707047l0.390095 0.24381 0.146286 0.121905 0.073143 0.073142h0.024381c0 0.024381 0.024381 0.024381-14.677334 19.480381s-14.701714 19.456-14.677333 19.480381h0.024381l0.048762 0.048762 0.097524 0.073143 0.097523 0.073143h-0.024381a74.727619 74.727619 0 0 0-7.68-4.217905 171.76381 171.76381 0 0 0-32.914285-11.288381z" fill="#070002" p-id="3172"></path></svg>